<svg width="24" height="24" viewBox="0 0 24 24" fill="none" xmlns="http://www.w3.org/2000/svg">

<path d="M17 9V15.333H18L17 15.335V15.3604C17.0002 15.3703 17.0014 15.3815 17.002 15.3936C17.0031 15.4178 17.0046 15.4462 17.0078 15.4785C17.0144 15.5432 17.0264 15.6236 17.0469 15.7168C17.0879 15.9039 17.164 16.1414 17.3037 16.4053C17.5809 16.9289 18.0821 17.5048 18.9463 18H5.05371C5.91788 17.5048 6.41905 16.9289 6.69629 16.4053C6.83597 16.1414 6.91206 15.9039 6.95312 15.7168C6.97358 15.6236 6.98564 15.5432 6.99219 15.4785C6.99545 15.4462 6.99686 15.4178 6.99805 15.3936C6.99863 15.3815 6.99976 15.3703 7 15.3604V15.335C7 15.3342 7 15.333 6 15.333H7V9H17Z" stroke="currentColor" stroke-width="2"/>
<circle cx="12" cy="9" r="5" stroke="currentColor" stroke-width="2"/>
<circle cx="12" cy="19" r="2" fill="currentColor"/>
<rect x="8" y="10" width="8" height="5" fill="white"/>
</svg>
