<svg width="24" height="24" viewBox="0 0 24 24" fill="none" xmlns="http://www.w3.org/2000/svg">
  <path d="M3.5 5.75C3.5 5.06 4.06 4.5 4.75 4.5H14.25C14.94 4.5 15.5 5.06 15.5 5.75V12.25C15.5 12.94 14.94 13.5 14.25 13.5H8.65L6.65 15.25C6.22 15.63 5.55 15.32 5.55 14.75V13.5H4.75C4.06 13.5 3.5 12.94 3.5 12.25V5.75Z" stroke="currentColor" stroke-width="1.35" stroke-linejoin="round"/>
  <path d="M9.5 11.75V11.25C9.5 10.56 10.06 10 10.75 10H19.25C19.94 10 20.5 10.56 20.5 11.25V17.75C20.5 18.44 19.94 19 19.25 19H18.45V20.25C18.45 20.82 17.78 21.13 17.35 20.75L15.35 19H10.75C10.06 19 9.5 18.44 9.5 17.75V16.1" stroke="currentColor" stroke-width="1.35" stroke-linejoin="round"/>
  <path d="M6.5 7.5H12.5" stroke="currentColor" stroke-width="1.35" stroke-linecap="round"/>
  <path d="M6.5 10.5H11" stroke="currentColor" stroke-width="1.35" stroke-linecap="round"/>
  <path d="M15 12.5V15" stroke="currentColor" stroke-width="1.5" stroke-linecap="round"/>
  <path d="M15 17H15.01" stroke="currentColor" stroke-width="1.8" stroke-linecap="round"/>
</svg>
