<svg width="24" height="24" viewBox="0 0 24 24" fill="none" xmlns="http://www.w3.org/2000/svg">

<path d="M12 15.25C13.0652 15.25 14.0181 15.5205 14.6963 15.9443C15.3778 16.3704 15.75 16.927 15.75 17.5C15.75 18.073 15.3778 18.6296 14.6963 19.0557C14.0181 19.4795 13.0652 19.75 12 19.75C10.9348 19.75 9.98193 19.4795 9.30371 19.0557C8.62217 18.6296 8.25 18.073 8.25 17.5C8.25 16.927 8.62217 16.3704 9.30371 15.9443C9.98193 15.5205 10.9348 15.25 12 15.25Z" stroke="currentColor" stroke-width="0.5"/>
<path d="M15.7843 8.00212C15.0151 10.3748 12.1033 10.997 12.1033 18C12.1033 10.997 9.17664 11.0034 8.20359 8.00212C7.23055 5.00085 9.94618 3 12.0958 3C14.2453 3 16.7574 5.00085 15.7843 8.00212Z" fill="currentColor"/>
<circle cx="12" cy="7" r="2" fill="white"/>
</svg>
