<svg width="24" height="24" viewBox="0 0 24 24" fill="none" xmlns="http://www.w3.org/2000/svg">
<rect width="24" height="24" fill="white"/>
<rect x="1" y="13.5105" width="2.70544" height="7.85523" rx="0.5" transform="rotate(-22.3132 1 13.5105)" stroke="black" stroke-linejoin="round"/>
<path d="M6.29978 18.5003C6.29978 18.5003 7.42654 17.5003 8.29978 17.5003C9.17301 17.5003 12.3051 19.124 12.7998 19.0003C14.7998 18.5003 19.7998 16.3575 21.7998 15.5003C22.6024 15.1563 23.069 14.5003 22.7998 13.5003C22.5306 12.5003 20.7998 12.3753 20.2998 12.5003C18.2998 13.0003 15.2998 14.5003 15.2998 14.0003C15.2998 13.0003 12.7998 13.5003 11.2998 12.5003C9.79977 11.5003 9.84559 11.6097 8.79977 11.5003C7.75396 11.391 4.29977 13.5003 4.29977 13.5003" stroke="black" stroke-linecap="round"/>
<path d="M9.79976 15.0003C9.79976 15.0003 13.2998 16.5003 14.2998 16.0003C15.2998 15.5003 15.2998 14.5003 15.2998 14.5003" stroke="black" stroke-linecap="round"/>
<rect x="14.25" y="3.25" width="2.5" height="2.5" stroke="black" stroke-width="0.5"/>
<circle cx="10.5" cy="7.5" r="1.25" stroke="black" stroke-width="0.5"/>
<path d="M14.4683 9.28832L17.0972 9.28832L15.7827 11.5432L14.4683 9.28832Z" stroke="black" stroke-width="0.5"/>
</svg>
