<svg width="24" height="24" viewBox="0 0 24 24" fill="none" xmlns="http://www.w3.org/2000/svg">
<rect width="24" height="24" fill="white"/>
<rect x="23.4192" y="10.7939" width="2.70544" height="7.85523" rx="0.5" transform="rotate(157.687 23.4192 10.7939)" stroke="black" stroke-linejoin="round"/>
<path d="M18.1194 5.80407C18.1194 5.80407 16.9927 6.80407 16.1194 6.80407C15.2462 6.80407 12.1141 5.1804 11.6194 5.30407C9.61944 5.80407 4.61944 7.94692 2.61944 8.80407C1.8168 9.14805 1.35021 9.80407 1.61944 10.8041C1.88867 11.8041 3.61944 11.9291 4.11944 11.8041C6.11944 11.3041 9.11944 9.80407 9.11944 10.3041C9.11944 11.3041 11.6194 10.8041 13.1194 11.8041C14.6195 12.8041 14.5736 12.6947 15.6194 12.8041C16.6653 12.9134 20.1194 10.8041 20.1194 10.8041" stroke="black" stroke-linecap="round"/>
<path d="M14.6195 9.30406C14.6195 9.30406 11.1194 7.80407 10.1194 8.30407C9.11945 8.80407 9.11945 9.80406 9.11945 9.80406" stroke="black" stroke-linecap="round"/>
<rect x="10.1692" y="21.0544" width="2.5" height="2.5" transform="rotate(180 10.1692 21.0544)" stroke="black" stroke-width="0.5"/>
<circle cx="13.9192" cy="16.8044" r="1.25" transform="rotate(180 13.9192 16.8044)" stroke="black" stroke-width="0.5"/>
<path d="M9.95093 15.0161L7.32202 15.0161L8.63647 12.7612L9.95093 15.0161Z" stroke="black" stroke-width="0.5"/>
</svg>
