<svg width="24" height="24" viewBox="0 0 24 24" fill="none" xmlns="http://www.w3.org/2000/svg">

<path d="M18 2C18.5523 2 19 2.44772 19 3V21C19 22 17.7071 22.7071 17 22C16 21 14.5 19.5 14.5 19.5L12.1414 17.1414C12.0633 17.0633 11.9367 17.0633 11.8586 17.1414L9.5 19.5C9.5 19.5 8 21 7 22C6 23 5 22 5 21V3C5 2.44772 5.44772 2 6 2H18ZM7 19L11.8586 14.1414C11.9367 14.0633 12.0633 14.0633 12.1414 14.1414L16.6586 18.6586C16.7846 18.7846 17 18.6953 17 18.5172V4.2C17 4.08954 16.9105 4 16.8 4H7.2C7.08954 4 7 4.08954 7 4.2V19Z" fill="currentColor"/>
</svg>
