<svg width="200" height="200" viewBox="0 0 200 200" fill="none" xmlns="http://www.w3.org/2000/svg">
<rect width="200" height="200" fill="white"/>
<path d="M63.9461 163.796C63.9461 163.796 51.5393 134.494 51.5434 95.1858C51.5475 55.8771 63.9599 30.1465 63.9599 30.1465" stroke="black" stroke-width="35" stroke-linecap="round"/>
<path d="M146.066 163.796C146.066 163.796 133.659 134.495 133.663 95.1858C133.667 55.8772 146.079 30.1466 146.079 30.1466" stroke="black" stroke-width="35" stroke-linecap="round"/>
<path d="M143.012 89.7971C143.012 89.7971 121.42 102.78 92.2986 103.239C63.1774 103.698 43.9999 91.3575 43.9999 91.3575" stroke="black" stroke-width="35" stroke-linecap="round"/>
<path d="M63.5 7.5C75.098 7.5 84.5 16.902 84.5 28.5C84.5 40.098 75.098 49.5 63.5 49.5C51.902 49.5 42.5 40.098 42.5 28.5C42.5 16.902 51.902 7.5 63.5 7.5ZM143.959 7.5C155.557 7.5 164.959 16.902 164.959 28.5C164.959 40.098 155.557 49.5 143.959 49.5C132.361 49.4999 122.959 40.0979 122.959 28.5C122.959 16.9021 132.361 7.50013 143.959 7.5Z" fill="black" stroke="white" stroke-width="7"/>
<path d="M51.033 91.5514C52.0515 88.5514 60.033 97.9234 96.752 96.5C133.471 95.0766 138.105 85.5514 139.533 88.5514C140.961 91.5514 120.752 102.9 96.752 105.128C72.752 107.356 50.0144 94.5514 51.033 91.5514Z" fill="white"/>
</svg>
