<svg width="200" height="200" viewBox="0 0 200 200" fill="none" xmlns="http://www.w3.org/2000/svg">
<rect width="200" height="200" fill="white"/>
<path d="M63.9461 163.796C63.9461 163.796 51.5393 134.494 51.5434 95.1858C51.5475 55.8771 63.9599 30.1465 63.9599 30.1465" stroke="black" stroke-width="35" stroke-linecap="round"/>
<path d="M146.066 163.796C146.066 163.796 133.659 134.495 133.663 95.1858C133.667 55.8772 146.079 30.1466 146.079 30.1466" stroke="black" stroke-width="35" stroke-linecap="round"/>
<path d="M143.012 89.7971C143.012 89.7971 121.42 102.78 92.2986 103.239C63.1774 103.698 43.9999 91.3575 43.9999 91.3575" stroke="black" stroke-width="35" stroke-linecap="round"/>
<path d="M63.5 9C74.2696 9 83 17.7304 83 28.5C83 39.2695 74.2696 48 63.5 48C52.7304 48 44 39.2695 44 28.5C44 17.7304 52.7304 9 63.5 9ZM143.959 9C154.729 9 163.459 17.7304 163.459 28.5C163.459 39.2696 154.729 48 143.959 48C133.19 47.9999 124.459 39.2695 124.459 28.5C124.459 17.7305 133.19 9.00013 143.959 9Z" fill="black" stroke="white" stroke-width="4"/>
<path d="M51.033 91.5514C52.0515 88.5514 60.033 97.9234 96.752 96.5C133.471 95.0766 138.105 85.5514 139.533 88.5514C140.961 91.5514 120.752 102.9 96.752 105.128C72.752 107.356 50.0144 94.5514 51.033 91.5514Z" fill="white"/>
</svg>
