<svg width="24" height="24" viewBox="0 0 24 24" fill="none" xmlns="http://www.w3.org/2000/svg">
<rect width="24" height="24" fill="white"/>
<rect x="1" y="13.5105" width="2.70544" height="7.85523" rx="0.5" transform="rotate(-22.3132 1 13.5105)" stroke="black" stroke-linejoin="round"/>
<path d="M6.29978 18.5003C6.29978 18.5003 7.42654 17.5003 8.29978 17.5003C9.17301 17.5003 12.3051 19.124 12.7998 19.0003C14.7998 18.5003 19.7998 16.3575 21.7998 15.5003C22.6024 15.1563 23.069 14.5003 22.7998 13.5003C22.5306 12.5003 20.7998 12.3753 20.2998 12.5003C18.2998 13.0003 15.2998 14.5003 15.2998 14.0003C15.2998 13.0003 12.7998 13.5003 11.2998 12.5003C9.79977 11.5003 9.84559 11.6097 8.79977 11.5003C7.75396 11.391 4.29977 13.5003 4.29977 13.5003" stroke="black" stroke-linecap="round"/>
<path d="M9.79976 15.0003C9.79976 15.0003 13.2998 16.5003 14.2998 16.0003C15.2998 15.5003 15.2998 14.5003 15.2998 14.5003" stroke="black" stroke-linecap="round"/>
<path d="M14.634 3.5C15.0189 2.83333 15.9811 2.83333 16.366 3.5L19.3971 8.75C19.782 9.41667 19.3009 10.25 18.5311 10.25H12.4689C11.6991 10.25 11.218 9.41667 11.6029 8.75L14.634 3.5Z" fill="black"/>
<path d="M16.366 11.5C15.9811 12.1667 15.0189 12.1667 14.634 11.5L11.6029 6.25C11.218 5.58333 11.6991 4.75 12.4689 4.75L18.5311 4.75C19.3009 4.75 19.782 5.58334 19.3971 6.25L16.366 11.5Z" fill="black"/>
<path d="M13.5 7.5L15 9" stroke="white" stroke-linecap="round"/>
<path d="M15 9L17.5 6.5" stroke="white" stroke-linecap="round"/>
</svg>
