<svg width="24" height="24" viewBox="0 0 24 24" fill="none" xmlns="http://www.w3.org/2000/svg">

<rect x="3" y="5" width="18" height="16" rx="2" stroke="currentColor" stroke-width="2" stroke-linecap="round"/>
<path d="M12 7V3" stroke="currentColor" stroke-width="2" stroke-linecap="round"/>
<path d="M8 7V3" stroke="currentColor" stroke-width="2" stroke-linecap="round"/>
<path d="M16 7V3" stroke="currentColor" stroke-width="2" stroke-linecap="round"/>
<rect x="6" y="10" width="3" height="3" rx="1" fill="currentColor"/>
<rect x="6" y="15" width="3" height="3" rx="1" fill="currentColor"/>
<rect x="15" y="10" width="3" height="3" rx="1" fill="currentColor"/>
<rect x="15" y="15" width="3" height="3" rx="1" fill="currentColor"/>
<path d="M10.5 11C10.5 10.4477 10.9477 10 11.5 10H12.5C13.0523 10 13.5 10.4477 13.5 11V12C13.5 12.5523 13.0523 13 12.5 13H11.5C10.9477 13 10.5 12.5523 10.5 12V11Z" fill="currentColor"/>
<path d="M10.5 16C10.5 15.4477 10.9477 15 11.5 15H12.5C13.0523 15 13.5 15.4477 13.5 16V17C13.5 17.5523 13.0523 18 12.5 18H11.5C10.9477 18 10.5 17.5523 10.5 17V16Z" fill="currentColor"/>
</svg>
