<svg width="24" height="24" viewBox="0 0 24 24" fill="none" xmlns="http://www.w3.org/2000/svg">

<path d="M4 20H20" stroke="currentColor" stroke-width="2" stroke-linecap="round"/>
<path d="M13 3C13 2.44772 12.5523 2 12 2C11.4477 2 11 2.44772 11 3H12H13ZM11.2929 16.7071C11.6834 17.0976 12.3166 17.0976 12.7071 16.7071L19.0711 10.3431C19.4616 9.95262 19.4616 9.31946 19.0711 8.92893C18.6805 8.53841 18.0474 8.53841 17.6569 8.92893L12 14.5858L6.34315 8.92893C5.95262 8.53841 5.31946 8.53841 4.92893 8.92893C4.53841 9.31946 4.53841 9.95262 4.92893 10.3431L11.2929 16.7071ZM12 3H11V16H12H13V3H12Z" fill="currentColor"/>
</svg>
