<svg width="24" height="24" viewBox="0 0 24 24" fill="none" xmlns="http://www.w3.org/2000/svg">

<rect x="5" y="8" width="14" height="9" rx="1" fill="white"/>
<path d="M3 5.99274C3 4.972 3.76851 4.11307 4.78741 4.05173C6.01253 3.97797 7.50267 3.9501 8 4.19877C8.66313 4.53033 9.766 5.38958 10.4338 5.93087C10.8025 6.22971 11.2606 6.39877 11.7352 6.39877H19C20.1046 6.39877 21 7.2942 21 8.39877V17.1988C21 18.3033 20.1046 19.1988 19 19.1988H5C3.89543 19.1988 3 18.3033 3 17.1988V5.99274Z" fill="currentColor"/>
<rect x="5" y="8.19876" width="14" height="9" rx="1" fill="white"/>
</svg>
