<svg width="24" height="24" viewBox="0 0 24 24" fill="none" xmlns="http://www.w3.org/2000/svg">

<circle cx="12" cy="12" r="8" stroke="currentColor" stroke-width="2"/>
<path d="M11.233 13.5455V13.4943C11.2386 12.9517 11.2955 12.5199 11.4034 12.1989C11.5114 11.8778 11.6648 11.6179 11.8636 11.419C12.0625 11.2202 12.3011 11.0369 12.5795 10.8693C12.7472 10.767 12.8977 10.6463 13.0312 10.5071C13.1648 10.3651 13.2699 10.2017 13.3466 10.017C13.4261 9.83239 13.4659 9.62784 13.4659 9.40341C13.4659 9.125 13.4006 8.88352 13.2699 8.67898C13.1392 8.47443 12.9645 8.31676 12.7457 8.20597C12.527 8.09517 12.2841 8.03977 12.017 8.03977C11.7841 8.03977 11.5597 8.08807 11.3438 8.18466C11.1278 8.28125 10.9474 8.43324 10.8026 8.64062C10.6577 8.84801 10.5739 9.11932 10.5511 9.45455H9.47727C9.5 8.97159 9.625 8.55824 9.85227 8.21449C10.0824 7.87074 10.3849 7.60795 10.7599 7.42614C11.1378 7.24432 11.5568 7.15341 12.017 7.15341C12.517 7.15341 12.9517 7.25284 13.321 7.4517C13.6932 7.65057 13.9801 7.9233 14.1818 8.26989C14.3864 8.61648 14.4886 9.01136 14.4886 9.45455C14.4886 9.76705 14.4403 10.0497 14.3438 10.3026C14.25 10.5554 14.1136 10.7812 13.9347 10.9801C13.7585 11.179 13.5455 11.3551 13.2955 11.5085C13.0455 11.6648 12.8452 11.8295 12.6946 12.0028C12.544 12.1733 12.4347 12.3764 12.3665 12.6122C12.2983 12.848 12.2614 13.142 12.2557 13.4943V13.5455H11.233ZM11.7784 16.0682C11.5682 16.0682 11.3878 15.9929 11.2372 15.8423C11.0866 15.6918 11.0114 15.5114 11.0114 15.3011C11.0114 15.0909 11.0866 14.9105 11.2372 14.7599C11.3878 14.6094 11.5682 14.5341 11.7784 14.5341C11.9886 14.5341 12.169 14.6094 12.3196 14.7599C12.4702 14.9105 12.5455 15.0909 12.5455 15.3011C12.5455 15.4403 12.5099 15.5682 12.4389 15.6847C12.3707 15.8011 12.2784 15.8949 12.1619 15.9659C12.0483 16.0341 11.9205 16.0682 11.7784 16.0682Z" fill="currentColor"/>
</svg>
