<svg width="24" height="24" viewBox="0 0 24 24" fill="none" xmlns="http://www.w3.org/2000/svg">
  <path fill="currentColor" fill-rule="evenodd" clip-rule="evenodd" d="M12 2.75c-3.32 0-6.25 2.35-6.25 5.8 0 3.68 4.37 9.9 5.58 11.52.34.45 1 .45 1.34 0 1.21-1.62 5.58-7.84 5.58-11.52 0-3.45-2.93-5.8-6.25-5.8Zm0 8.95a3.05 3.05 0 1 0 0-6.1 3.05 3.05 0 0 0 0 6.1Z"/>
  <path d="M7.9 18.55c.96.95 2.4 1.6 4.1 1.6s3.14-.65 4.1-1.6" stroke="currentColor" stroke-width="1.55" stroke-linecap="round" opacity="0.34"/>
</svg>
