<svg width="24" height="24" viewBox="0 0 24 24" fill="none" xmlns="http://www.w3.org/2000/svg">
  <path d="M20.75 10.6L18.55 11.5L16 5.2L18.2 4.3L20.75 10.6Z" stroke="currentColor" stroke-width="1.3" stroke-linejoin="round"/>
  <path d="M17.9 6.2C16.85 7 15.9 7.4 15 7.28C13.95 7.15 12.65 5.88 11.45 6.12C9.2 6.58 5.45 8.35 3.15 9.45C2.35 9.83 1.95 10.52 2.24 11.26C2.53 12.02 3.42 12.22 4.26 11.95L9.05 10.42" stroke="currentColor" stroke-width="1.35" stroke-linecap="round" stroke-linejoin="round"/>
  <path d="M14.5 9.9C13.1 9.15 11.45 8.55 10.38 8.95C9.45 9.3 9.05 10.42 9.05 10.42C9.8 10.78 10.98 10.85 12.05 11.45C13.8 12.42 14.55 13.08 15.9 12.65C16.58 12.43 17.6 11.88 18.8 11.12" stroke="currentColor" stroke-width="1.35" stroke-linecap="round" stroke-linejoin="round"/>
  <path d="M8.5 20.25H5.75V17.5H8.5V20.25Z" stroke="currentColor" stroke-width="1.25" stroke-linejoin="round"/>
  <path d="M13.5 18.75C12.53 18.75 11.75 17.97 11.75 17C11.75 16.03 12.53 15.25 13.5 15.25C14.47 15.25 15.25 16.03 15.25 17C15.25 17.97 14.47 18.75 13.5 18.75Z" stroke="currentColor" stroke-width="1.25"/>
  <path d="M9.7 13.9H6.6L8.15 11.25L9.7 13.9Z" stroke="currentColor" stroke-width="1.25" stroke-linejoin="round"/>
</svg>
