<svg width="24" height="24" viewBox="0 0 24 24" fill="none" xmlns="http://www.w3.org/2000/svg">
  <path d="M3.25 13.4L5.45 12.5L8 18.8L5.8 19.7L3.25 13.4Z" stroke="currentColor" stroke-width="1.3" stroke-linejoin="round"/>
  <path d="M6.1 17.8C7.15 17 8.1 16.6 9 16.72C10.05 16.85 11.35 18.12 12.55 17.88C14.8 17.42 18.55 15.65 20.85 14.55C21.65 14.17 22.05 13.48 21.76 12.74C21.47 11.98 20.58 11.78 19.74 12.05L14.95 13.58" stroke="currentColor" stroke-width="1.35" stroke-linecap="round" stroke-linejoin="round"/>
  <path d="M9.5 14.1C10.9 14.85 12.55 15.45 13.62 15.05C14.55 14.7 14.95 13.58 14.95 13.58C14.2 13.22 13.02 13.15 11.95 12.55C10.2 11.58 9.45 10.92 8.1 11.35C7.42 11.57 6.4 12.12 5.2 12.88" stroke="currentColor" stroke-width="1.35" stroke-linecap="round" stroke-linejoin="round"/>
  <path d="M15.5 3.25L19 6.75L15.5 10.25L12 6.75L15.5 3.25Z" stroke="currentColor" stroke-width="1.35" stroke-linejoin="round"/>
  <path d="M14.2 5.45L16.8 8.05" stroke="currentColor" stroke-width="1.35" stroke-linecap="round"/>
  <path d="M16.8 5.45L14.2 8.05" stroke="currentColor" stroke-width="1.35" stroke-linecap="round"/>
</svg>
