<svg width="24" height="24" viewBox="0 0 24 24" fill="none" xmlns="http://www.w3.org/2000/svg">

<rect x="13" y="2" width="6" height="6" fill="white"/>
<path d="M13 3.5V7C13 7.55228 13.4477 8 14 8H17.5" stroke="currentColor"/>
<path d="M8 3.5H12.6719C13.0696 3.50008 13.4512 3.65822 13.7324 3.93945L17.0605 7.26758C17.3418 7.54881 17.4999 7.93041 17.5 8.32812V19C17.5 19.8284 16.8284 20.5 16 20.5H8C7.17157 20.5 6.5 19.8284 6.5 19V5C6.5 4.17157 7.17157 3.5 8 3.5Z" stroke="currentColor"/>
<path d="M8 18H16" stroke="currentColor" stroke-linecap="round"/>
<path d="M8 14H16" stroke="currentColor" stroke-linecap="round"/>
<path d="M8 10H16" stroke="currentColor" stroke-linecap="round"/>
<path d="M8 6H11.5" stroke="currentColor" stroke-linecap="round"/>
</svg>
