<svg width="24" height="24" viewBox="0 0 24 24" fill="none" xmlns="http://www.w3.org/2000/svg">

<path d="M11.6055 4.34277C11.8873 4.20165 12.2192 4.20166 12.501 4.34277L18.584 7.38867C18.8567 7.52523 18.9671 7.72476 18.9785 7.88574C19.0566 8.98546 18.9851 11.2252 17.6504 14.0322C16.1879 17.1079 13.6183 18.9448 12.3379 19.708C12.1539 19.8176 11.9406 19.8187 11.7559 19.7109C10.4517 18.9504 7.84679 17.1168 6.46484 14.0508C4.85516 10.4793 4.93239 8.4772 5.0625 7.71582C5.06481 7.70248 5.07122 7.67989 5.10254 7.64355C5.13774 7.60278 5.20101 7.54996 5.29883 7.50098L11.6055 4.34277Z" stroke="currentColor" stroke-width="2"/>
</svg>
