<svg width="24" height="24" viewBox="0 0 24 24" fill="none" xmlns="http://www.w3.org/2000/svg">

<path d="M16.2227 2.91941L21.8796 8.57626C22.1725 8.86915 22.1725 9.34403 21.8796 9.63692L13.6871 17.8294C13.5464 17.97 13.3556 18.049 13.1567 18.049H7.49989C7.08576 18.0489 6.75002 17.7132 6.74997 17.2991V11.6422C6.74997 11.4434 6.82897 11.2525 6.96956 11.1119L15.1621 2.91941C15.4549 2.62651 15.9298 2.62652 16.2227 2.91941Z" fill="currentColor" stroke="white" stroke-width="0.5"/>
<path d="M14.2583 2.88388L19.9151 8.54074C20.208 8.83363 20.208 9.3085 19.9151 9.6014L11.7226 17.7939C11.582 17.9345 11.3911 18.0135 11.1923 18.0135H5.53543C5.1213 18.0134 4.78556 17.6777 4.78551 17.2636V11.6067C4.78551 11.4078 4.86451 11.217 5.0051 11.0764L13.1976 2.88388C13.4905 2.59099 13.9654 2.59099 14.2583 2.88388Z" fill="currentColor" stroke="white" stroke-width="0.5"/>
<circle cx="8" cy="15" r="1" fill="white"/>
</svg>
